<mxfile host="app.diagrams.net" modified="2024-05-05T11:28:26.277Z" agent="Mozilla/5.0 (Windows NT 10.0; Win64; x64) AppleWebKit/537.36 (KHTML, like Gecko) Chrome/124.0.0.0 Safari/537.36" etag="QxtIKUE6xNDaaoURCe0J" version="24.3.1" type="github">
  <diagram id="C5RBs43oDa-KdzZeNtuy" name="Page-1">
    <mxGraphModel dx="1990" dy="1250" grid="1" gridSize="10" guides="1" tooltips="1" connect="1" arrows="1" fold="1" page="1" pageScale="1" pageWidth="827" pageHeight="1169" math="0" shadow="0">
      <root>
        <mxCell id="WIyWlLk6GJQsqaUBKTNV-0" />
        <mxCell id="WIyWlLk6GJQsqaUBKTNV-1" parent="WIyWlLk6GJQsqaUBKTNV-0" />
        <mxCell id="Avn_l4_MzBeNfsF6Z3CO-0" value="customer" style="rounded=0;whiteSpace=wrap;html=1;" vertex="1" parent="WIyWlLk6GJQsqaUBKTNV-1">
          <mxGeometry x="90" y="310" width="160" height="50" as="geometry" />
        </mxCell>
        <mxCell id="Avn_l4_MzBeNfsF6Z3CO-1" value="" style="endArrow=none;html=1;rounded=0;entryX=0.5;entryY=1;entryDx=0;entryDy=0;" edge="1" parent="WIyWlLk6GJQsqaUBKTNV-1" source="Avn_l4_MzBeNfsF6Z3CO-2" target="Avn_l4_MzBeNfsF6Z3CO-0">
          <mxGeometry width="50" height="50" relative="1" as="geometry">
            <mxPoint x="40" y="390" as="sourcePoint" />
            <mxPoint x="100" y="320" as="targetPoint" />
          </mxGeometry>
        </mxCell>
        <mxCell id="Avn_l4_MzBeNfsF6Z3CO-2" value="user name and password" style="ellipse;whiteSpace=wrap;html=1;" vertex="1" parent="WIyWlLk6GJQsqaUBKTNV-1">
          <mxGeometry y="430" width="90" height="50" as="geometry" />
        </mxCell>
        <mxCell id="Avn_l4_MzBeNfsF6Z3CO-3" value="" style="endArrow=none;html=1;rounded=0;entryX=0.5;entryY=1;entryDx=0;entryDy=0;" edge="1" parent="WIyWlLk6GJQsqaUBKTNV-1" source="Avn_l4_MzBeNfsF6Z3CO-4" target="Avn_l4_MzBeNfsF6Z3CO-0">
          <mxGeometry width="50" height="50" relative="1" as="geometry">
            <mxPoint x="180" y="390" as="sourcePoint" />
            <mxPoint x="131" y="263" as="targetPoint" />
          </mxGeometry>
        </mxCell>
        <mxCell id="Avn_l4_MzBeNfsF6Z3CO-4" value="choose book" style="ellipse;whiteSpace=wrap;html=1;" vertex="1" parent="WIyWlLk6GJQsqaUBKTNV-1">
          <mxGeometry x="60" y="520" width="100" height="50" as="geometry" />
        </mxCell>
        <mxCell id="Avn_l4_MzBeNfsF6Z3CO-7" value="" style="endArrow=none;html=1;rounded=0;exitX=0.39;exitY=0.025;exitDx=0;exitDy=0;exitPerimeter=0;entryX=0.5;entryY=1;entryDx=0;entryDy=0;" edge="1" parent="WIyWlLk6GJQsqaUBKTNV-1" source="Avn_l4_MzBeNfsF6Z3CO-8" target="Avn_l4_MzBeNfsF6Z3CO-0">
          <mxGeometry width="50" height="50" relative="1" as="geometry">
            <mxPoint x="230" y="380" as="sourcePoint" />
            <mxPoint x="130" y="290" as="targetPoint" />
          </mxGeometry>
        </mxCell>
        <mxCell id="Avn_l4_MzBeNfsF6Z3CO-8" value="shopping basket" style="ellipse;whiteSpace=wrap;html=1;" vertex="1" parent="WIyWlLk6GJQsqaUBKTNV-1">
          <mxGeometry x="180" y="520" width="100" height="50" as="geometry" />
        </mxCell>
        <mxCell id="Avn_l4_MzBeNfsF6Z3CO-9" value="buying" style="ellipse;whiteSpace=wrap;html=1;" vertex="1" parent="WIyWlLk6GJQsqaUBKTNV-1">
          <mxGeometry x="280" y="455" width="90" height="40" as="geometry" />
        </mxCell>
        <mxCell id="Avn_l4_MzBeNfsF6Z3CO-10" value="" style="endArrow=none;html=1;rounded=0;exitX=0.5;exitY=1;exitDx=0;exitDy=0;entryX=0.083;entryY=0.175;entryDx=0;entryDy=0;entryPerimeter=0;" edge="1" parent="WIyWlLk6GJQsqaUBKTNV-1" source="Avn_l4_MzBeNfsF6Z3CO-0" target="Avn_l4_MzBeNfsF6Z3CO-9">
          <mxGeometry width="50" height="50" relative="1" as="geometry">
            <mxPoint x="210" y="320" as="sourcePoint" />
            <mxPoint x="260" y="270" as="targetPoint" />
          </mxGeometry>
        </mxCell>
        <mxCell id="Avn_l4_MzBeNfsF6Z3CO-11" value="Author" style="rounded=1;whiteSpace=wrap;html=1;" vertex="1" parent="WIyWlLk6GJQsqaUBKTNV-1">
          <mxGeometry x="580" y="220" width="120" height="60" as="geometry" />
        </mxCell>
        <mxCell id="Avn_l4_MzBeNfsF6Z3CO-12" value="login" style="rhombus;whiteSpace=wrap;html=1;" vertex="1" parent="WIyWlLk6GJQsqaUBKTNV-1">
          <mxGeometry x="380" y="190" width="90" height="40" as="geometry" />
        </mxCell>
        <mxCell id="Avn_l4_MzBeNfsF6Z3CO-14" value="" style="endArrow=none;html=1;rounded=0;entryX=0;entryY=0.5;entryDx=0;entryDy=0;exitX=1;exitY=0.5;exitDx=0;exitDy=0;" edge="1" parent="WIyWlLk6GJQsqaUBKTNV-1" source="Avn_l4_MzBeNfsF6Z3CO-0" target="Avn_l4_MzBeNfsF6Z3CO-12">
          <mxGeometry width="50" height="50" relative="1" as="geometry">
            <mxPoint x="220" y="240" as="sourcePoint" />
            <mxPoint x="240" y="110" as="targetPoint" />
            <Array as="points">
              <mxPoint x="270" y="260" />
            </Array>
          </mxGeometry>
        </mxCell>
        <mxCell id="Avn_l4_MzBeNfsF6Z3CO-15" value="" style="endArrow=none;html=1;rounded=0;exitX=1;exitY=0.5;exitDx=0;exitDy=0;entryX=0;entryY=0.5;entryDx=0;entryDy=0;" edge="1" parent="WIyWlLk6GJQsqaUBKTNV-1" source="Avn_l4_MzBeNfsF6Z3CO-12" target="Avn_l4_MzBeNfsF6Z3CO-11">
          <mxGeometry width="50" height="50" relative="1" as="geometry">
            <mxPoint x="340" y="80" as="sourcePoint" />
            <mxPoint x="390" y="30" as="targetPoint" />
          </mxGeometry>
        </mxCell>
        <mxCell id="Avn_l4_MzBeNfsF6Z3CO-16" value="" style="endArrow=none;html=1;rounded=0;entryX=0.5;entryY=1;entryDx=0;entryDy=0;exitX=0.5;exitY=0;exitDx=0;exitDy=0;" edge="1" parent="WIyWlLk6GJQsqaUBKTNV-1" source="Avn_l4_MzBeNfsF6Z3CO-17" target="Avn_l4_MzBeNfsF6Z3CO-11">
          <mxGeometry width="50" height="50" relative="1" as="geometry">
            <mxPoint x="540" y="360" as="sourcePoint" />
            <mxPoint x="590" y="310" as="targetPoint" />
          </mxGeometry>
        </mxCell>
        <mxCell id="Avn_l4_MzBeNfsF6Z3CO-17" value="Add books" style="ellipse;whiteSpace=wrap;html=1;" vertex="1" parent="WIyWlLk6GJQsqaUBKTNV-1">
          <mxGeometry x="560" y="400" width="90" height="50" as="geometry" />
        </mxCell>
        <mxCell id="Avn_l4_MzBeNfsF6Z3CO-19" value="edit books" style="ellipse;whiteSpace=wrap;html=1;" vertex="1" parent="WIyWlLk6GJQsqaUBKTNV-1">
          <mxGeometry x="670" y="400" width="100" height="55" as="geometry" />
        </mxCell>
        <mxCell id="Avn_l4_MzBeNfsF6Z3CO-20" value="" style="endArrow=none;html=1;rounded=0;entryX=0.5;entryY=1;entryDx=0;entryDy=0;exitX=0.44;exitY=-0.073;exitDx=0;exitDy=0;exitPerimeter=0;" edge="1" parent="WIyWlLk6GJQsqaUBKTNV-1" source="Avn_l4_MzBeNfsF6Z3CO-19" target="Avn_l4_MzBeNfsF6Z3CO-11">
          <mxGeometry width="50" height="50" relative="1" as="geometry">
            <mxPoint x="620" y="340" as="sourcePoint" />
            <mxPoint x="670" y="290" as="targetPoint" />
          </mxGeometry>
        </mxCell>
        <mxCell id="Avn_l4_MzBeNfsF6Z3CO-22" value="" style="edgeStyle=orthogonalEdgeStyle;rounded=0;orthogonalLoop=1;jettySize=auto;html=1;entryX=0.5;entryY=1;entryDx=0;entryDy=0;" edge="1" parent="WIyWlLk6GJQsqaUBKTNV-1" source="Avn_l4_MzBeNfsF6Z3CO-21" target="Avn_l4_MzBeNfsF6Z3CO-9">
          <mxGeometry relative="1" as="geometry" />
        </mxCell>
        <mxCell id="Avn_l4_MzBeNfsF6Z3CO-21" value="Bank" style="rounded=0;whiteSpace=wrap;html=1;" vertex="1" parent="WIyWlLk6GJQsqaUBKTNV-1">
          <mxGeometry x="420" y="650" width="120" height="60" as="geometry" />
        </mxCell>
      </root>
    </mxGraphModel>
  </diagram>
</mxfile>
